<svg xmlns="http://www.w3.org/2000/svg" height="24px" viewBox="0 -960 960 960" width="24px" fill="#e3e3e3"><path d="M479.98-71.87q-84.65 0-159.09-32.22-74.43-32.21-129.63-87.41-55.19-55.2-87.29-129.72-32.1-74.52-32.1-159.26 0-84.59 32.14-158.98 32.14-74.4 87.23-129.43 55.1-55.04 129.58-87.14 74.48-32.1 159.17-32.1 84.68 0 159.17 32.1 74.49 32.1 129.59 87.14 55.1 55.03 87.24 129.43 32.14 74.39 32.14 158.98 0 84.74-32.1 159.26T768.74-191.5q-55.2 55.2-129.65 87.41-74.46 32.22-159.11 32.22Zm.02-91q52.09 0 100.65-16.3 48.57-16.31 89.13-48.11L226.8-670.02q-31.32 41.04-47.63 89.37-16.3 48.32-16.3 100.17 0 132.81 92.28 225.21T480-162.87Zm253.43-128.06q31.09-41.05 47.4-89.37 16.3-48.33 16.3-100.18 0-132.6-92.28-224.62-92.28-92.03-224.85-92.03-51.85 0-100.05 16.06-48.21 16.07-89.25 47.16l442.73 442.98ZM480-480.48Z"/></svg>